<svg id="Layer_1" data-name="Layer 1" xmlns="http://www.w3.org/2000/svg" xmlns:xlink="http://www.w3.org/1999/xlink" viewBox="0 0 920.22 890.8"><defs><style>.cls-1{fill:url(#linear-gradient);}</style><linearGradient id="linear-gradient" x1="104.08" y1="540" x2="1024.3" y2="540" gradientUnits="userSpaceOnUse"><stop offset="0" stop-color="#eb563b"/><stop offset="0" stop-color="#eb573b"/><stop offset="0.07" stop-color="#f3713e"/><stop offset="0.14" stop-color="#f98440"/><stop offset="0.21" stop-color="#fc8f41"/><stop offset="0.28" stop-color="#fd9341"/><stop offset="0.67" stop-color="#f3903f"/><stop offset="0.89" stop-color="#ed683c"/><stop offset="1" stop-color="#e93e3a"/></linearGradient></defs><title>version two</title><path class="cls-1" d="M583.44,95.47c-23.34-11.65-80,94.4-228.18,251.46a2219.33,2219.33,0,0,1-251.18,228.5q111.21,103.71,237.51,210.9Q468,893.15,589.09,985.4c231.75-186,401-322.95,421.16-340.73,5.92-5.22,15.57-14.49,13.85-24.58-1.18-7-7.1-12-12.63-16.41L696.71,353c-4.88,112.29,65.57,224.09,169,268.16A482.74,482.74,0,0,0,587.27,833.19a586.6,586.6,0,0,0-146-167,585.25,585.25,0,0,0-163.65-89.57c56.6-29.27,139.6-82.44,206.9-175.12C578.49,272.07,610.39,108.93,583.44,95.47Z" transform="translate(-104.08 -94.6)"/></svg>